<?xml version="1.0" encoding="utf-8"?>
<!-- Generator: Adobe Illustrator 16.0.0, SVG Export Plug-In . SVG Version: 6.00 Build 0)  -->
<!DOCTYPE svg PUBLIC "-//W3C//DTD SVG 1.1//EN" "http://www.w3.org/Graphics/SVG/1.1/DTD/svg11.dtd">
<svg version="1.1" id="Layer_1" xmlns="http://www.w3.org/2000/svg" xmlns:xlink="http://www.w3.org/1999/xlink" x="0px" y="0px"
	 width="117.138px" height="117.176px" viewBox="0 0 117.138 117.176" enable-background="new 0 0 117.138 117.176"
	 xml:space="preserve">
<g>
	<g>
		<path fill="#FFFFFF" d="M8.618,58.555c0.305-23.75,16.756-43.772,39.907-48.894c23.126-5.116,47.188,8.347,56.162,29.935
			c9.119,21.94,0.753,47.546-18.771,60.649c-19.802,13.289-46.536,9.727-63.145-6.882C13.571,84.166,8.783,71.445,8.618,58.555
			c-0.062-4.833-7.562-4.839-7.5,0c0.286,22.233,12.958,42.417,33.1,51.988c20.324,9.657,44.339,5.796,61.493-8.316
			c17.3-14.232,23.8-38.286,17.944-59.574c-5.816-21.146-24.438-37.104-45.86-40.71C33.055-3.906,1.564,23.833,1.118,58.555
			C1.056,63.394,8.556,63.388,8.618,58.555z"/>
	</g>
</g>
<g>
	<g>
		<g>
			<path fill="#FFFFFF" d="M71.839,85.09c-9.79-9.791-19.581-19.581-29.371-29.372c-3.423-3.422-8.726,1.881-5.304,5.304
				c9.791,9.79,19.581,19.581,29.372,29.371C69.959,93.815,75.262,88.513,71.839,85.09L71.839,85.09z"/>
		</g>
	</g>
	<g>
		<g>
			<path fill="#FFFFFF" d="M66.537,26.717c-9.791,9.791-19.581,19.581-29.372,29.372c-3.422,3.423,1.881,8.727,5.304,5.304
				c9.79-9.791,19.581-19.581,29.371-29.372C75.262,28.598,69.959,23.295,66.537,26.717L66.537,26.717z"/>
		</g>
	</g>
</g>
</svg>
