<svg xmlns="http://www.w3.org/2000/svg" aria-hidden="true" focusable="false" data-prefix="fas" data-icon="times" role="img" width="24" height="24"><rect id="backgroundrect" width="100%" height="100%" x="0" y="0" fill="none" stroke="none" class="" style=""/><g class="currentLayer" style=""><title>Layer 1</title><path fill="#00acc1" d="M16.54909050062618,11.999999735344893 l6.822954357737966,-6.822954357737966 c0.8372727042372564,-0.8372727042372564 0.8372727042372564,-2.1947726668890284 0,-3.032727189289344 l-1.5163635946446725,-1.5163635946446725 c-0.8372727042372564,-0.8372727042372564 -2.1947726668890284,-0.8372727042372564 -3.032727189289344,0 L11.999999716692162,7.450908951410879 L5.177045358954197,0.6279545936729217 c-0.8372727042372564,-0.8372727042372564 -2.1947726668890284,-0.8372727042372564 -3.032727189289344,0 L0.6279545750201816,2.1443181883175932 c-0.8372727042372564,0.8372727042372564 -0.8372727042372564,2.1947726668890284 0,3.032727189289344 L7.450908932758146,11.999999735344893 L0.6279545750201816,18.82295409308286 c-0.8372727042372564,0.8372727042372564 -0.8372727042372564,2.1947726668890284 0,3.032727189289344 l1.5163635946446725,1.5163635946446725 c0.8372727042372564,0.8372727042372564 2.1954544850520885,0.8372727042372564 3.032727189289344,0 L11.999999716692162,16.54909051927891 l6.822954357737966,6.822954357737966 c0.8372727042372564,0.8372727042372564 2.1954544850520885,0.8372727042372564 3.032727189289344,0 l1.5163635946446725,-1.5163635946446725 c0.8372727042372564,-0.8372727042372564 0.8372727042372564,-2.1947726668890284 0,-3.032727189289344 L16.54909050062618,11.999999735344893 z" class="" id="svg_1" fill-opacity="1"/></g></svg>