<svg xmlns="http://www.w3.org/2000/svg" aria-hidden="true" focusable="false" data-prefix="fab" data-icon="github" role="img" width="25" height="24"><rect id="backgroundrect" width="100%" height="100%" x="0" y="0" fill="none" stroke="none" class="" style=""/><g class="currentLayer" style=""><title>Layer 1</title><path fill="#00acc1" d="M8.380559805240146,19.6708257273087 c0,0.10103146238987522 -0.11618618174835658,0.1818566323017754 -0.26268180221367576,0.1818566323017754 c-0.16670191294329417,0.015154719358481296 -0.28288809469165077,-0.06567045055341893 -0.28288809469165077,-0.1818566323017754 c0,-0.10103146238987522 0.11618618174835658,-0.1818566323017754 0.26268180221367576,-0.1818566323017754 c0.15154719358481292,-0.015154719358481296 0.28288809469165077,0.06567045055341893 0.28288809469165077,0.1818566323017754 zm-1.5710392401625597,-0.22732079037721928 c-0.035361011836456326,0.10103146238987522 0.06567045055341893,0.21721764413823172 0.21721764413823172,0.24752708285519445 c0.13134090110683774,0.05051573119493764 0.28288809469165077,0 0.31319753340861334,-0.10103146238987522 s-0.06567045055341893,-0.21721764413823172 -0.21721764413823172,-0.26268180221367576 c-0.13134090110683774,-0.035361011836456326 -0.27783652157215705,0.015154719358481296 -0.31319753340861334,0.11618618174835658 zm2.232795318816242,-0.08587674303139403 c-0.14649562046531908,0.035361011836456326 -0.24752708285519445,0.13134090110683774 -0.23237236349671309,0.24752708285519445 c0.015154719358481296,0.10103146238987522 0.14649562046531908,0.16670191294329417 0.29804281405013194,0.13134090110683774 c0.14649562046531908,-0.035361011836456326 0.24752708285519445,-0.13134090110683774 0.23237236349671309,-0.23237236349671309 c-0.015154719358481296,-0.09597988927038152 -0.15154719358481292,-0.16165033982380042 -0.29804281405013194,-0.14649562046531908 zM12.366250996520725,0 C5.359719079782879,0 0,5.319306494826928 0,12.325838411564774 c0,5.6021945895185805 3.5259980374066444,10.396137479918158 8.562416437541923,12.083362901829073 c0.6466013592952017,0.11618618174835658 0.8739221496724207,-0.28288809469165077 0.8739221496724207,-0.6112403474587452 c0,-0.31319753340861334 -0.015154719358481296,-2.0408355402754794 -0.015154719358481296,-3.1016658953691683 c0,0 -3.536101183645632,0.7577359679240643 -4.278682432211214,-1.5053687896091406 c0,0 -0.5758793356222892,-1.470007777772684 -1.4043373272192654,-1.8488757617347162 c0,0 -1.156810244364071,-0.7930969797605206 0.08082516991190017,-0.7779422604020395 c0,0 1.2578417067539462,0.10103146238987522 1.9499072241245914,1.3033058648293903 c1.1062945131691333,1.9499072241245914 2.9602218480233438,1.389182607860784 3.6825968041109514,1.0557787819741955 c0.11618618174835658,-0.8082516991190016 0.444538434515451,-1.3689763153828092 0.8082516991190016,-1.7023801412693973 c-2.8238293737970115,-0.31319753340861334 -5.672916613191492,-0.7223749560876077 -5.672916613191492,-5.5819882970406045 c0,-1.389182607860784 0.3839195570815258,-2.0862996983509228 1.1921712562005273,-2.9753765673818244 c-0.13134090110683774,-0.3283522527670947 -0.5607246162638078,-1.682173848791421 0.13134090110683774,-3.4300181481362633 c1.0557787819741955,-0.3283522527670947 3.485585452450694,1.3639247422633152 3.485585452450694,1.3639247422633152 c1.010314623898752,-0.28288809469165077 2.0964028445899103,-0.42938371515696977 3.172387919042081,-0.42938371515696977 s2.1620732951433292,0.14649562046531908 3.172387919042081,0.42938371515696977 c0,0 2.429806670476499,-1.697328568149903 3.485585452450694,-1.3639247422633152 c0.6920655173706456,1.752895872464335 0.26268180221367576,3.1016658953691683 0.13134090110683774,3.4300181481362633 c0.8082516991190016,0.8941284421503957 1.3033058648293903,1.5912455326405346 1.3033058648293903,2.9753765673818244 c0,4.874768060311478 -2.9753765673818244,5.2637391905124975 -5.799205941178836,5.5819882970406045 c0.4647447269934261,0.39907427644000715 0.8587674303139393,1.156810244364071 0.8587674303139393,2.3439299274451044 c0,1.7023801412693973 -0.015154719358481296,3.808886132098295 -0.015154719358481296,4.223115127896784 c0,0.3283522527670947 0.23237236349671309,0.7274265292071016 0.8739221496724207,0.6112403474587452 C21.63083609767228,22.721975891482934 25.05580267268905,17.92803300108335 25.05580267268905,12.325838411564774 C25.05580267268905,5.319306494826928 19.372782913258572,0 12.366250996520725,0 zM4.910129072147935,17.422875689133978 c-0.06567045055341893,0.05051573119493764 -0.05051573119493764,0.16670191294329417 0.035361011836456326,0.26268180221367576 c0.08082516991190017,0.08082516991190017 0.19701135166025677,0.11618618174835658 0.26268180221367576,0.05051573119493764 c0.06567045055341893,-0.05051573119493764 0.05051573119493764,-0.16670191294329417 -0.035361011836456326,-0.26268180221367576 c-0.08082516991190017,-0.08082516991190017 -0.19701135166025677,-0.11618618174835658 -0.26268180221367576,-0.05051573119493764 zm-0.545569896905326,-0.40917742267899465 c-0.035361011836456326,0.06567045055341893 0.015154719358481296,0.14649562046531908 0.11618618174835658,0.19701135166025677 c0.08082516991190017,0.05051573119493764 0.1818566323017754,0.035361011836456326 0.21721764413823172,-0.035361011836456326 c0.035361011836456326,-0.06567045055341893 -0.015154719358481296,-0.14649562046531908 -0.11618618174835658,-0.19701135166025677 c-0.10103146238987522,-0.030309438716962598 -0.1818566323017754,-0.015154719358481296 -0.21721764413823172,0.035361011836456326 zm1.6367096907159782,1.798360030539779 c-0.08082516991190017,0.06567045055341893 -0.05051573119493764,0.21721764413823172 0.06567045055341893,0.31319753340861334 c0.11618618174835658,0.11618618174835658 0.26268180221367576,0.13134090110683774 0.3283522527670947,0.05051573119493764 c0.06567045055341893,-0.06567045055341893 0.035361011836456326,-0.21721764413823172 -0.06567045055341893,-0.31319753340861334 c-0.11113460862886276,-0.11618618174835658 -0.26268180221367576,-0.13134090110683774 -0.3283522527670947,-0.05051573119493764 zm-0.5758793356222892,-0.7425812485655827 c-0.08082516991190017,0.05051573119493764 -0.08082516991190017,0.1818566323017754 0,0.29804281405013194 c0.08082516991190017,0.11618618174835658 0.21721764413823172,0.16670191294329417 0.28288809469165077,0.11618618174835658 c0.08082516991190017,-0.06567045055341893 0.08082516991190017,-0.19701135166025677 0,-0.31319753340861334 c-0.07072202367291272,-0.11618618174835658 -0.20206292477975044,-0.16670191294329417 -0.28288809469165077,-0.10103146238987522 z" class="" id="svg_1" fill-opacity="1"/></g></svg>