<svg xmlns="http://www.w3.org/2000/svg" aria-hidden="true" focusable="false" data-prefix="fas" data-icon="info" role="img" width="8" height="22"><rect id="backgroundrect" width="100%" height="100%" x="0" y="0" fill="none" stroke="none" class="" style=""/><g class="currentLayer" style=""><title>Layer 1</title><path fill="#ffffff" d="M0.854234975022242,18.119562460935537 h0.854234975022242 V11.949508659847385 H0.854234975022242 c-0.4717939767047845,0 -0.854234975022242,-0.3824409983174577 -0.854234975022242,-0.854234975022242 V9.054890735235766 c0,-0.4717939767047845 0.3824409983174577,-0.854234975022242 0.854234975022242,-0.854234975022242 h4.7837158601245555 c0.4717939767047845,0 0.854234975022242,0.3824409983174577 0.854234975022242,0.854234975022242 v9.06467172569977 h0.854234975022242 c0.4717939767047845,0 0.854234975022242,0.3824409983174577 0.854234975022242,0.854234975022242 V21.014180385547157 c0,0.4717939767047845 -0.3824409983174577,0.854234975022242 -0.854234975022242,0.854234975022242 H0.854234975022242 c-0.4717939767047845,0 -0.854234975022242,-0.3824409983174577 -0.854234975022242,-0.854234975022242 v-2.040382949589376 c0,-0.4717939767047845 0.3824409983174577,-0.854234975022242 0.854234975022242,-0.854234975022242 zM4.100327880106762,0 C2.401895191018789,0 1.0250819700266904,1.3768132209920987 1.0250819700266904,3.0752459100800715 s1.3768132209920987,3.0752459100800715 3.0752459100800715,3.0752459100800715 s3.0752459100800715,-1.3768132209920987 3.0752459100800715,-3.0752459100800715 S5.798717857445984,0 4.100327880106762,0 z" class="" id="svg_1" fill-opacity="1"/></g></svg>