<svg xmlns="http://www.w3.org/2000/svg" aria-hidden="true" focusable="false" data-prefix="fab" data-icon="instagram" role="img" width="24" height="24"><rect id="backgroundrect" width="100%" height="100%" x="0" y="0" fill="none" stroke="none" class="" style=""/><g class="currentLayer" style=""><title>Layer 1</title><path fill="#00acc1" d="M11.908829419967901,5.799693437052043 c-3.3786169849203374,0 -6.103822194455139,2.7252052095348 -6.103822194455139,6.103822194455139 s2.7252052095348,6.103822194455139 6.103822194455139,6.103822194455139 S18.012651614423042,15.28213261642752 18.012651614423042,11.903515631507183 S15.287446404888241,5.799693437052043 11.908829419967901,5.799693437052043 zm0,10.072103464479497 c-2.183351542141916,0 -3.9682812700243595,-1.7796174370256506 -3.9682812700243595,-3.9682812700243595 s1.7796174370256506,-3.9682812700243595 3.9682812700243595,-3.9682812700243595 s3.9682812700243595,1.7796174370256506 3.9682812700243595,3.9682812700243595 s-1.7849297278824428,3.9682812700243595 -3.9682812700243595,3.9682812700243595 zm7.777193814344929,-10.321781134748768 c0,0.7915313376621559 -0.6374749028151585,1.4236939496205196 -1.4236939496205196,1.4236939496205196 c-0.7915313376621559,0 -1.4236939496205196,-0.6374749028151585 -1.4236939496205196,-1.4236939496205196 s0.6374749028151585,-1.4236939496205196 1.4236939496205196,-1.4236939496205196 s1.4236939496205196,0.6374749028151585 1.4236939496205196,1.4236939496205196 zm4.04265334201946,1.4449431130476924 c-0.09030894456548086,-1.9071124175886816 -0.525916794822506,-3.5964209100488502 -1.9230492901590606,-4.988241114528613 c-1.3918202044797618,-1.3918202044797618 -3.081128696939931,-1.8274280547367878 -4.988241114528613,-1.9230492901590606 c-1.9655476170134043,-0.11155810799265271 -7.8568781771968235,-0.11155810799265271 -9.822425794210229,0 c-1.9018001267318887,0.09030894456548086 -3.5911086191920565,0.525916794822506 -4.988241114528613,1.9177369993022673 s-1.8274280547367878,3.081128696939931 -1.9230492901590606,4.988241114528613 c-0.11155810799265271,1.9655476170134043 -0.11155810799265271,7.8568781771968235 0,9.822425794210229 c0.09030894456548086,1.9071124175886816 0.525916794822506,3.5964209100488502 1.9230492901590606,4.988241114528613 s3.081128696939931,1.8274280547367878 4.988241114528613,1.9230492901590606 c1.9655476170134043,0.11155810799265271 7.8568781771968235,0.11155810799265271 9.822425794210229,0 c1.9071124175886816,-0.09030894456548086 3.5964209100488502,-0.525916794822506 4.988241114528613,-1.9230492901590606 c1.3918202044797618,-1.3918202044797618 1.8274280547367878,-3.081128696939931 1.9230492901590606,-4.988241114528613 c0.11155810799265271,-1.9655476170134043 0.11155810799265271,-7.8515658863400315 0,-9.817113503353434 zM21.189401546785245,18.921051853330713 c-0.4143586868298538,1.0412090079314256 -1.216514606205593,1.843364927307166 -2.2630359049938114,2.2630359049938114 c-1.5671258027539303,0.6215380302447794 -5.285729402509017,0.478106177111369 -7.017536221823531,0.478106177111369 s-5.455722709926395,0.1381195622766176 -7.017536221823531,-0.478106177111369 c-1.0412090079314256,-0.4143586868298538 -1.843364927307166,-1.216514606205593 -2.2630359049938114,-2.2630359049938114 c-0.6215380302447794,-1.5671258027539303 -0.478106177111369,-5.285729402509017 -0.478106177111369,-7.017536221823531 s-0.1381195622766176,-5.455722709926395 0.478106177111369,-7.017536221823531 c0.4143586868298538,-1.0412090079314256 1.216514606205593,-1.843364927307166 2.2630359049938114,-2.2630359049938114 c1.5671258027539303,-0.6215380302447794 5.285729402509017,-0.478106177111369 7.017536221823531,-0.478106177111369 s5.455722709926395,-0.1381195622766176 7.017536221823531,0.478106177111369 c1.0412090079314256,0.4143586868298538 1.843364927307166,1.216514606205593 2.2630359049938114,2.2630359049938114 c0.6215380302447794,1.5671258027539303 0.478106177111369,5.285729402509017 0.478106177111369,7.017536221823531 s0.14343185313341056,5.455722709926395 -0.478106177111369,7.017536221823531 z" class="" id="svg_1" fill-opacity="1"/></g></svg>