<svg xmlns="http://www.w3.org/2000/svg" aria-hidden="true" focusable="false" data-prefix="fab" data-icon="twitter" role="img" width="23" height="19"><rect id="backgroundrect" width="100%" height="100%" x="0" y="0" fill="none" stroke="none" class="" style=""/><g class="currentLayer" style=""><title>Layer 1</title><path fill="#00acc1" d="M20.763529492690573,4.684260690110017 c0.0146900045607432,0.20556966382233846 0.0146900045607432,0.41118452765871016 0.0146900045607432,0.6167541914810486 c0,6.270145946665515 -4.772353081652142,13.494825789681105 -13.494825789681105,13.494825789681105 c-2.6872312342932396,0 -5.183537609310851,-0.7782990416351916 -7.28339466124453,-2.1291918610411322 c0.3818045185372235,0.04402481366819654 0.7488738324996704,0.058714818228939744 1.1453683555976364,0.058714818228939744 c2.2172866883915576,0 4.258428922096296,-0.7488738324996704 5.888386628142324,-2.026407029129963 c-2.0851670473729356,-0.04407001368222961 -3.8325995898908762,-1.4096980376629478 -4.434663776811181,-3.2892954212135455 c0.29370969118679763,0.04402481366819654 0.5873741823595615,0.07340482278968298 0.8957738781071032,0.07340482278968298 c0.4258293322054202,0 0.8517038644248732,-0.05876001824297275 1.248153187508806,-0.161499650140109 c-2.173261874723362,-0.4405645367801965 -3.803264780783423,-2.349496729438246 -3.803264780783423,-4.654923445194262 v-0.058714818228939744 c0.6313989960277586,0.3524245094157376 1.3656732239947513,0.5726841777988186 2.143881865601875,0.6020189869062722 c-1.2775331966302925,-0.8517038644248732 -2.114501856480388,-2.3054267157560164 -2.114501856480388,-3.9500744263627894 c0,-0.8810386735323272 0.23490447292979186,-1.6886725242749692 0.6460890005885018,-2.3935215431064423 c2.3348067248775024,2.878110893554836 5.844361814474128,4.757663077091399 9.779701036262141,4.96327794092777 c-0.07340482278968298,-0.3524245094157376 -0.1174748364719125,-0.7194938233781846 -0.1174748364719125,-1.0866083373546638 c0,-2.613826411503557 2.114547056494421,-4.743018272544688 4.743018272544688,-4.743018272544688 c1.3656280239807181,0 2.5990912069287813,0.5726841777988186 3.4654850759143967,1.4977928650133734 c1.0719183327939206,-0.20556966382233846 2.0998118519196454,-0.6020641869203045 3.01027573458749,-1.1453683555976364 c-0.35246970942977035,1.1013435419294402 -1.1013435419294402,2.0264522291439953 -2.0851670473729356,2.613781211489524 c0.9544886963360419,-0.1027396318971362 1.8795973835505966,-0.3671145139764804 2.7312560479614363,-0.7341838279389272 c-0.6459986005604358,0.9397534917612655 -1.453677651317111,1.7767221516113616 -2.3787863385316665,2.452236361335382 z" class="" id="svg_1" fill-opacity="1"/></g></svg>