<svg xmlns="http://www.w3.org/2000/svg" width="117.138" height="117.176" viewBox="0 0 117.138 117.176"><path fill="#FFF" d="M115.887 58.555c-.286-22.234-12.957-42.417-33.1-51.988C62.463-3.09 38.449.771 21.295 14.883 3.995 29.115-2.506 53.168 3.35 74.457c5.816 21.146 24.439 37.104 45.86 40.71 34.74 5.848 66.231-21.892 66.677-56.612.062-4.839-7.438-4.833-7.5 0-.306 23.75-16.757 43.772-39.906 48.894-23.127 5.116-47.189-8.347-56.162-29.935-9.12-21.94-.753-47.545 18.771-60.649 19.801-13.29 46.536-9.727 63.145 6.881 9.197 9.198 13.985 21.918 14.151 34.809.064 4.833 7.564 4.839 7.501 0z"/><path fill="#FFF" d="M50.469 90.393L79.84 61.022c3.423-3.423-1.88-8.726-5.303-5.304L45.165 85.09c-3.422 3.423 1.881 8.725 5.304 5.303z"/><path fill="#FFF" d="M45.165 32.021l29.372 29.372c3.423 3.423 8.726-1.881 5.303-5.304L50.469 26.717c-3.423-3.422-8.726 1.881-5.304 5.304z"/></svg>