<?xml version="1.0" encoding="utf-8"?>
<!-- Generator: Adobe Illustrator 16.0.0, SVG Export Plug-In . SVG Version: 6.00 Build 0)  -->
<!DOCTYPE svg PUBLIC "-//W3C//DTD SVG 1.1//EN" "http://www.w3.org/Graphics/SVG/1.1/DTD/svg11.dtd">
<svg version="1.1" id="Layer_1" xmlns="http://www.w3.org/2000/svg" xmlns:xlink="http://www.w3.org/1999/xlink" x="0px" y="0px"
	 width="117.138px" height="117.176px" viewBox="0 0 117.138 117.176" enable-background="new 0 0 117.138 117.176"
	 xml:space="preserve">
<g>
	<g>
		<path fill="#FFFFFF" d="M115.887,58.555c-0.286-22.234-12.957-42.417-33.1-51.988C62.463-3.09,38.449,0.771,21.295,14.883
			C3.995,29.115-2.506,53.168,3.35,74.457c5.816,21.146,24.439,37.104,45.86,40.71C83.95,121.015,115.441,93.275,115.887,58.555
			c0.062-4.839-7.438-4.833-7.5,0c-0.306,23.75-16.757,43.772-39.906,48.894c-23.127,5.116-47.189-8.347-56.162-29.935
			c-9.12-21.94-0.753-47.545,18.771-60.649c19.801-13.29,46.536-9.727,63.145,6.881c9.197,9.198,13.985,21.918,14.151,34.809
			C108.45,63.388,115.95,63.394,115.887,58.555z"/>
	</g>
</g>
<g>
	<g>
		<g>
			<path fill="#FFFFFF" d="M50.469,90.393c9.791-9.79,19.581-19.581,29.371-29.371c3.423-3.423-1.88-8.726-5.303-5.304
				c-9.791,9.791-19.581,19.581-29.372,29.372C41.743,88.513,47.046,93.815,50.469,90.393L50.469,90.393z"/>
		</g>
	</g>
	<g>
		<g>
			<path fill="#FFFFFF" d="M45.165,32.021c9.791,9.791,19.581,19.581,29.372,29.372c3.423,3.423,8.726-1.881,5.303-5.304
				c-9.79-9.791-19.58-19.581-29.371-29.372C47.046,23.295,41.743,28.598,45.165,32.021L45.165,32.021z"/>
		</g>
	</g>
</g>
</svg>
