<svg xmlns="http://www.w3.org/2000/svg" width="117.138" height="117.176" viewBox="0 0 117.138 117.176"><path fill="#FFF" d="M8.618 58.555c.305-23.75 16.756-43.772 39.907-48.894 23.126-5.116 47.188 8.347 56.162 29.935 9.119 21.94.753 47.546-18.771 60.649-19.802 13.289-46.536 9.727-63.145-6.882-9.2-9.197-13.988-21.918-14.153-34.808-.062-4.833-7.562-4.839-7.5 0 .286 22.233 12.958 42.417 33.1 51.988 20.324 9.657 44.339 5.796 61.493-8.316 17.3-14.232 23.8-38.286 17.944-59.574-5.816-21.146-24.438-37.104-45.86-40.71-34.74-5.849-66.231 21.89-66.677 56.612-.062 4.839 7.438 4.833 7.5 0z"/><path fill="#FFF" d="M71.839 85.09L42.468 55.718c-3.423-3.422-8.726 1.881-5.304 5.304l29.372 29.371c3.423 3.422 8.726-1.88 5.303-5.303z"/><path fill="#FFF" d="M66.537 26.717L37.165 56.089c-3.422 3.423 1.881 8.727 5.304 5.304L71.84 32.021c3.422-3.423-1.881-8.726-5.303-5.304z"/></svg>